<svg width="30" height="30" viewBox="0 0 30 30" fill="none" xmlns="http://www.w3.org/2000/svg">
<path opacity="0.15" d="M26.25 15C26.25 21.2132 21.2132 26.25 15 26.25C8.7868 26.25 3.75 21.2132 3.75 15C3.75 8.7868 8.7868 3.75 15 3.75C21.2132 3.75 26.25 8.7868 26.25 15Z" fill="#E33342"/>
<path d="M8.75 15L8.21967 14.4697C7.92678 14.7626 7.92678 15.2374 8.21967 15.5303L8.75 15ZM21.25 15.75C21.6642 15.75 22 15.4142 22 15C22 14.5858 21.6642 14.25 21.25 14.25V15.75ZM14.2803 10.5303C14.5732 10.2374 14.5732 9.76256 14.2803 9.46967C13.9874 9.17678 13.5126 9.17678 13.2197 9.46967L14.2803 10.5303ZM13.2197 20.5303C13.5126 20.8232 13.9874 20.8232 14.2803 20.5303C14.5732 20.2374 14.5732 19.7626 14.2803 19.4697L13.2197 20.5303ZM8.75 15.75H21.25V14.25H8.75V15.75ZM13.2197 9.46967L8.21967 14.4697L9.28033 15.5303L14.2803 10.5303L13.2197 9.46967ZM8.21967 15.5303L13.2197 20.5303L14.2803 19.4697L9.28033 14.4697L8.21967 15.5303ZM25.5 15C25.5 20.799 20.799 25.5 15 25.5V27C21.6274 27 27 21.6274 27 15H25.5ZM15 25.5C9.20101 25.5 4.5 20.799 4.5 15H3C3 21.6274 8.37258 27 15 27V25.5ZM4.5 15C4.5 9.20101 9.20101 4.5 15 4.5V3C8.37258 3 3 8.37258 3 15H4.5ZM15 4.5C20.799 4.5 25.5 9.20101 25.5 15H27C27 8.37258 21.6274 3 15 3V4.5Z" fill="#E33342"/>
</svg>
