<svg width="60" height="24" viewBox="0 0 60 24" fill="none" xmlns="http://www.w3.org/2000/svg">
<path d="M2 10.5C1.17157 10.5 0.5 11.1716 0.5 12C0.5 12.8284 1.17157 13.5 2 13.5L2 10.5ZM59.4944 13.0607C60.0802 12.4749 60.0802 11.5251 59.4944 10.9393L49.9485 1.3934C49.3627 0.807616 48.4129 0.807616 47.8272 1.3934C47.2414 1.97919 47.2414 2.92894 47.8272 3.51472L56.3124 12L47.8272 20.4853C47.2414 21.0711 47.2414 22.0208 47.8272 22.6066C48.4129 23.1924 49.3627 23.1924 49.9485 22.6066L59.4944 13.0607ZM2 13.5L58.4338 13.5L58.4338 10.5L2 10.5L2 13.5Z" fill="white"/>
</svg>
