<svg width="42" height="42" viewBox="0 0 42 42" fill="none" xmlns="http://www.w3.org/2000/svg">
<circle cx="21" cy="21" r="21" fill="#FFCF97"/>
<path fill-rule="evenodd" clip-rule="evenodd" d="M21.5 11.2183L29.6829 11.4496C31.1287 11.4905 32.3246 12.5881 32.4891 14.0252C32.853 17.2063 32.853 20.4184 32.4891 23.5995C32.3246 25.0366 31.1287 26.1342 29.6829 26.1751L23.4688 26.3508V28.6561H27.1251C27.591 28.6561 27.9688 29.0339 27.9688 29.4999C27.9688 29.9658 27.591 30.3436 27.1251 30.3436H15.8751C15.4091 30.3436 15.0313 29.9658 15.0313 29.4999C15.0313 29.0339 15.4091 28.6561 15.8751 28.6561H19.5313V26.3508L13.3172 26.1751C11.8713 26.1342 10.6754 25.0366 10.511 23.5995C10.147 20.4184 10.147 17.2063 10.511 14.0252C10.6754 12.5881 11.8713 11.4905 13.3172 11.4496L21.5 11.2183ZM21.5 12.9064L13.3649 13.1364C12.7583 13.1536 12.2566 13.6141 12.1876 14.217C11.8382 17.2706 11.8382 20.3541 12.1876 23.4077C12.2566 24.0106 12.7583 24.4711 13.3649 24.4883L21.5 24.7183L29.6352 24.4883C30.2418 24.4711 30.7435 24.0106 30.8125 23.4077C31.1619 20.3541 31.1619 17.2706 30.8125 14.217C30.7435 13.6141 30.2418 13.1536 29.6352 13.1364L21.5 12.9064Z" fill="black"/>
</svg>
