<svg width="42" height="42" viewBox="0 0 42 42" fill="none" xmlns="http://www.w3.org/2000/svg">
<circle cx="21" cy="21" r="21" fill="#FFCF97"/>
<path fill-rule="evenodd" clip-rule="evenodd" d="M19.6709 10.9713C20.4858 9.56687 22.514 9.56687 23.3289 10.9713L25.8245 15.2722C26.0545 15.6686 26.4522 15.9391 26.9053 16.0076L31.0495 16.6335C32.856 16.9064 33.4896 19.1872 32.0828 20.3527L29.0633 22.8544C28.6395 23.2055 28.4402 23.7593 28.5431 24.3L29.3889 28.7418C29.7203 30.4817 27.8937 31.8336 26.3265 31.0084L22.2036 28.8375C21.7631 28.6056 21.2367 28.6056 20.7962 28.8375L16.6733 31.0084C15.1061 31.8336 13.2795 30.4817 13.6109 28.7418L14.4567 24.3C14.5596 23.7593 14.3604 23.2055 13.9365 22.8544L10.917 20.3527C9.51019 19.1872 10.1438 16.9064 11.9503 16.6335L16.0945 16.0076C16.5477 15.9391 16.9453 15.6686 17.1753 15.2722L19.6709 10.9713ZM21.7612 11.8809C21.6448 11.6803 21.355 11.6803 21.2386 11.8809L18.743 16.1818C18.2369 17.054 17.3622 17.6492 16.3651 17.7998L12.221 18.4257C11.9629 18.4647 11.8724 18.7905 12.0734 18.957L15.0929 21.4586C16.0253 22.2311 16.4637 23.4496 16.2372 24.639L15.3914 29.0808C15.344 29.3294 15.605 29.5225 15.8289 29.4046L19.9517 27.2338C20.9208 26.7235 22.079 26.7235 23.0481 27.2338L27.1709 29.4046C27.3948 29.5225 27.6558 29.3294 27.6084 29.0808L26.7626 24.639C26.5361 23.4496 26.9745 22.2311 27.9069 21.4586L30.9264 18.957C31.1274 18.7905 31.0369 18.4647 30.7788 18.4257L26.6347 17.7998C25.6376 17.6492 24.7629 17.054 24.2568 16.1818L21.7612 11.8809Z" fill="black"/>
</svg>
