<svg width="42" height="42" viewBox="0 0 42 42" fill="none" xmlns="http://www.w3.org/2000/svg">
<circle cx="21" cy="21" r="21" fill="#509FDB"/>
<path fill-rule="evenodd" clip-rule="evenodd" d="M14.5111 22.7721C14.5604 22.7886 14.6101 22.8004 14.6597 22.8077C14.7139 22.9349 14.7839 23.0995 14.8655 23.292C15.0647 23.7619 15.3331 24.3973 15.6102 25.0602C16.1752 26.4121 16.7451 27.8057 16.871 28.2046C17.0268 28.6977 17.1915 29.0329 17.3714 29.2618C17.4643 29.3801 17.5719 29.4835 17.6977 29.5618C17.761 29.6011 17.8279 29.6335 17.8978 29.6575C17.9008 29.6586 17.9039 29.6596 17.907 29.6607C18.267 29.7966 18.5952 29.7399 18.8007 29.6707C18.9107 29.6337 18.9997 29.5889 19.0627 29.5527C19.0949 29.5342 19.122 29.517 19.1437 29.5024L19.1488 29.4989L22.3283 27.5162L26.0009 30.3318C26.0551 30.3734 26.1142 30.4082 26.1768 30.4355C26.618 30.6281 27.0453 30.6952 27.4472 30.6403C27.8484 30.5855 28.167 30.417 28.4041 30.2272C28.6363 30.0414 28.7937 29.8334 28.8917 29.6788C28.9418 29.5998 28.9794 29.53 29.0059 29.4765C29.0192 29.4496 29.0299 29.4264 29.0382 29.4078L29.0488 29.3833L29.0528 29.3737L29.0545 29.3696L29.0552 29.3677L29.056 29.3659C29.0753 29.3177 29.0901 29.2677 29.1002 29.2168L32.4529 12.3131C32.4636 12.259 32.469 12.204 32.469 12.1489C32.469 11.6539 32.2825 11.1832 31.844 10.8976C31.4691 10.6535 31.0516 10.6429 30.7877 10.663C30.503 10.6846 30.2401 10.7549 30.0636 10.811C29.9718 10.8402 29.8948 10.8684 29.8393 10.89C29.8114 10.9008 29.7886 10.91 29.7715 10.9171L29.7587 10.9225L10.9558 18.2986L10.9534 18.2995C10.9414 18.3038 10.926 18.3096 10.9077 18.3167C10.8713 18.3309 10.8225 18.3509 10.7656 18.3767C10.6544 18.427 10.4985 18.5058 10.3385 18.6153C10.0829 18.7903 9.49514 19.2697 9.59412 20.0609C9.67308 20.6921 10.1055 21.0798 10.369 21.2662C10.5136 21.3686 10.6511 21.4418 10.7512 21.4894C10.7976 21.5115 10.894 21.5507 10.9358 21.5677L10.9464 21.572L14.5111 22.7721ZM30.4168 12.4763L30.4142 12.4775C30.4048 12.4816 30.3954 12.4855 30.3859 12.4892L11.5601 19.8743C11.5503 19.8781 11.5404 19.8818 11.5304 19.8853L11.5199 19.8892C11.5079 19.8939 11.4876 19.9022 11.4622 19.9137C11.4477 19.9202 11.4327 19.9274 11.4173 19.935C11.4384 19.9469 11.4586 19.9572 11.4765 19.9658C11.4938 19.974 11.5069 19.9796 11.5141 19.9825L15.0495 21.1728C15.1143 21.1946 15.1746 21.2234 15.23 21.2582L26.9038 14.4244L26.9147 14.418C26.9233 14.4129 26.9344 14.4065 26.9478 14.3989C26.9744 14.3839 27.0109 14.3639 27.0543 14.3418C27.1353 14.3006 27.2649 14.2393 27.411 14.1942C27.5127 14.1628 27.8124 14.0743 28.1365 14.1782C28.3366 14.2424 28.5437 14.3803 28.6784 14.614C28.7453 14.7301 28.781 14.8467 28.7982 14.9534C28.8441 15.1216 28.8368 15.2877 28.8009 15.431C28.7236 15.7398 28.5066 15.9807 28.3092 16.165C28.1401 16.3229 25.9515 18.4333 23.7924 20.5165C22.7158 21.5554 21.6501 22.584 20.8535 23.3529L20.3303 23.858L26.9363 28.9226C27.0878 28.9768 27.1773 28.974 27.2188 28.9684C27.2681 28.9616 27.3085 28.9426 27.3498 28.9096C27.396 28.8727 27.4363 28.8228 27.4665 28.7752L27.4678 28.7733L30.7195 12.3786C30.6713 12.3902 30.6225 12.4041 30.5755 12.419C30.5222 12.436 30.4783 12.4521 30.4491 12.4634C30.4347 12.469 30.4243 12.4732 30.4187 12.4756L30.4168 12.4763ZM20.8979 26.4195L19.5799 25.4091L19.2606 27.4405L20.8979 26.4195ZM18.3709 23.4041L19.6815 22.1388C20.4781 21.3699 21.5439 20.3411 22.6207 19.3021L23.7148 18.2466L16.3797 22.5405L16.4191 22.6333C16.619 23.1048 16.8886 23.7431 17.1672 24.4095C17.3754 24.9078 17.5932 25.4325 17.7916 25.9183L18.11 23.8928C18.1407 23.6975 18.2361 23.5285 18.3709 23.4041Z" fill="black"/>
</svg>
