<svg width="20" height="20" viewBox="0 0 20 20" fill="none" xmlns="http://www.w3.org/2000/svg">
<path fill-rule="evenodd" clip-rule="evenodd" d="M12.6141 2.89131C12.4969 2.7741 12.338 2.70825 12.1722 2.70825C12.0064 2.70825 11.8475 2.7741 11.7303 2.89131L4.06994 10.5516C3.99142 10.6302 3.93524 10.7282 3.90717 10.8356L3.07384 14.026C3.01776 14.2407 3.07971 14.469 3.23661 14.6259C3.3935 14.7828 3.62182 14.8447 3.8365 14.7886L7.02686 13.9553C7.1343 13.9272 7.23232 13.8711 7.31085 13.7925L14.9712 6.13222C15.2152 5.88814 15.2152 5.49241 14.9712 5.24833L12.6141 2.89131ZM5.07374 11.3156L12.1722 4.21714L13.6453 5.69027L6.54688 12.7887L4.5529 13.3096L5.07374 11.3156Z" fill="white"/>
<path d="M3.33337 16.0416C2.9882 16.0416 2.70837 16.3214 2.70837 16.6666C2.70837 17.0118 2.9882 17.2916 3.33337 17.2916H15.8334C16.1786 17.2916 16.4584 17.0118 16.4584 16.6666C16.4584 16.3214 16.1786 16.0416 15.8334 16.0416H3.33337Z" fill="white"/>
</svg>
