<svg width="42" height="42" viewBox="0 0 42 42" fill="none" xmlns="http://www.w3.org/2000/svg">
<circle cx="21" cy="21" r="21" fill="#FFCF97"/>
<path fill-rule="evenodd" clip-rule="evenodd" d="M10.3879 16.0937C10.0494 19.2388 10.0645 22.8662 10.5355 25.9986C10.7961 27.7318 12.2107 29.0606 13.9568 29.2124L15.7817 29.371C19.5868 29.7018 23.4134 29.7018 27.2185 29.371L29.0434 29.2124C30.7895 29.0606 32.204 27.7318 32.4647 25.9986C32.9357 22.8662 32.9508 19.239 32.6123 16.0939C32.5686 15.7292 32.5193 15.3651 32.4647 15.0016C32.204 13.2683 30.7895 11.9396 29.0434 11.7878L27.2185 11.6292C23.4134 11.2984 19.5868 11.2984 15.7817 11.6292L13.9568 11.7878C12.2107 11.9396 10.7961 13.2683 10.5355 15.0016C10.4808 15.365 10.4316 15.7291 10.3879 16.0937ZM15.9386 13.4349C19.6393 13.1132 23.3609 13.1132 27.0615 13.4349L28.8864 13.5935C29.7979 13.6727 30.5363 14.3663 30.6723 15.2711C30.6865 15.365 30.7002 15.459 30.7136 15.5531L23.994 19.2862C22.443 20.1478 20.5571 20.1478 19.0061 19.2862L12.2866 15.5531C12.3 15.4591 12.3137 15.3651 12.3278 15.2711C12.4639 14.3663 13.2023 13.6727 14.1138 13.5935L15.9386 13.4349ZM30.9354 17.5033C31.1697 20.2435 31.0821 23.0044 30.6723 25.7291C30.5363 26.6338 29.7979 27.3274 28.8864 27.4067L27.0615 27.5653C23.3609 27.887 19.6393 27.887 15.9386 27.5653L14.1138 27.4067C13.2023 27.3274 12.4639 26.6338 12.3278 25.7291C11.9181 23.0044 11.8304 20.2435 12.0648 17.5033L18.1258 20.8706C20.2243 22.0364 22.7758 22.0364 24.8743 20.8706L30.9354 17.5033Z" fill="black"/>
</svg>
