<svg width="30" height="30" viewBox="0 0 30 30" fill="none" xmlns="http://www.w3.org/2000/svg">
<path fill-rule="evenodd" clip-rule="evenodd" d="M3.07518 21.0238C2.7982 20.7365 2.73338 20.3055 2.91364 19.9495L3.79051 18.2178C5.86585 14.1192 10.0695 11.5359 14.6635 11.5359H15.0947C15.1261 10.853 15.1667 10.1703 15.2164 9.48815L15.3012 8.32485C15.3702 7.37883 16.425 6.84999 17.2243 7.36072C19.8464 9.03617 22.1259 11.195 23.9413 13.7222L24.5114 14.5159C24.7462 14.8427 24.7462 15.283 24.5114 15.6098L23.9413 16.4035C22.1259 18.9307 19.8464 21.0895 17.2243 22.765C16.425 23.2757 15.3702 22.7469 15.3012 21.8009L15.2164 20.6376C15.157 19.8229 15.1107 19.0076 15.0774 18.1918C12.3901 18.1142 9.70608 18.6566 7.23937 19.7951L4.14289 21.2242C3.78059 21.3914 3.35216 21.311 3.07518 21.0238ZM5.84799 18.3722L6.45364 18.0927C9.46757 16.7016 12.7745 16.1144 16.0559 16.3664C16.5338 16.4031 16.907 16.7943 16.9212 17.2734C16.953 18.3501 17.0081 19.4263 17.0865 20.5012L17.0932 20.5943C19.1476 19.1422 20.9479 17.3568 22.4185 15.3096L22.5957 15.0629L22.4185 14.8161C20.9479 12.769 19.1476 10.9835 17.0932 9.5314L17.0865 9.62447C17.0165 10.584 16.9651 11.5445 16.9322 12.5055C16.915 13.0105 16.5006 13.4109 15.9953 13.4109L14.6635 13.4109C11.0419 13.4109 7.70694 15.3083 5.84799 18.3722Z" fill="#E33342"/>
</svg>
