<svg width="42" height="42" viewBox="0 0 42 42" fill="none" xmlns="http://www.w3.org/2000/svg">
<circle cx="21" cy="21" r="21" fill="#DB50A3"/>
<path fill-rule="evenodd" clip-rule="evenodd" d="M13.1143 12.4571C13.1143 9.99553 15.1098 8 17.5714 8C18.95 8 20.1824 8.62588 21 9.60898C21.8176 8.62588 23.05 8 24.4286 8C26.8902 8 28.8857 9.99553 28.8857 12.4571C28.8857 13.3408 28.6286 14.1644 28.185 14.8571H29.2286C31.3115 14.8571 33 16.5457 33 18.6286V21.3714C33 22.4743 32.2561 23.4034 31.2428 23.6844C31.4404 26.1894 31.3259 28.7108 30.901 31.1905C30.6473 32.6712 29.4447 33.8054 27.9518 33.9723L26.6976 34.1125C22.911 34.5357 19.089 34.5357 15.3024 34.1125L14.0482 33.9723C12.5553 33.8054 11.3527 32.6711 11.099 31.1905C10.6741 28.7108 10.5596 26.1894 10.7572 23.6844C9.74386 23.4034 9 22.4743 9 21.3714V18.6286C9 16.5457 10.6885 14.8571 12.7714 14.8571H13.815C13.3714 14.1644 13.1143 13.3408 13.1143 12.4571ZM19.9714 12.4571C19.9714 11.1317 18.8969 10.0571 17.5714 10.0571C16.2459 10.0571 15.1714 11.1317 15.1714 12.4571C15.1714 13.7826 16.2459 14.8571 17.5714 14.8571C18.8969 14.8571 19.9714 13.7826 19.9714 12.4571ZM24.4286 14.8571C25.7541 14.8571 26.8286 13.7826 26.8286 12.4571C26.8286 11.1317 25.7541 10.0571 24.4286 10.0571C23.1031 10.0571 22.0286 11.1317 22.0286 12.4571C22.0286 13.7826 23.1031 14.8571 24.4286 14.8571ZM11.0571 18.6286C11.0571 17.6818 11.8247 16.9143 12.7714 16.9143H19.9714V21.7143H11.4C11.2106 21.7143 11.0571 21.5608 11.0571 21.3714V18.6286ZM22.0286 23.7714H29.186C29.3784 26.1311 29.2737 28.507 28.8734 30.843C28.7745 31.4205 28.3055 31.8628 27.7233 31.9279L26.4691 32.0681C24.993 32.233 23.5113 32.331 22.0286 32.362V23.7714ZM22.0286 21.7143H30.6C30.7894 21.7143 30.9429 21.5608 30.9429 21.3714V18.6286C30.9429 17.6818 30.1753 16.9143 29.2286 16.9143H22.0286V21.7143ZM19.9714 23.7714V32.362C18.4887 32.331 17.007 32.233 15.5309 32.0681L14.2767 31.9279C13.6945 31.8628 13.2255 31.4205 13.1266 30.843C12.7263 28.507 12.6216 26.1311 12.814 23.7714H19.9714Z" fill="black"/>
</svg>
