<svg width="25" height="25" viewBox="0 0 25 25" fill="none" xmlns="http://www.w3.org/2000/svg">
<path d="M12.5 19.0103C12.0685 19.0103 11.7187 19.3601 11.7187 19.7916C11.7187 20.2231 12.0685 20.5728 12.5 20.5728H18.75C19.7567 20.5728 20.5729 19.7567 20.5729 18.7499V6.24992C20.5729 5.24315 19.7567 4.427 18.75 4.427H12.5C12.0685 4.427 11.7187 4.77678 11.7187 5.20825C11.7187 5.63973 12.0685 5.9895 12.5 5.9895L18.75 5.9895C18.8938 5.9895 19.0104 6.1061 19.0104 6.24992L19.0104 18.7499C19.0104 18.8937 18.8938 19.0103 18.75 19.0103H12.5Z" fill="white"/>
<path fill-rule="evenodd" clip-rule="evenodd" d="M3.38538 13.6616C3.38538 14.3807 3.96834 14.9637 4.68746 14.9637H9.49225C9.49904 15.0402 9.50616 15.1166 9.51359 15.1931L9.56987 15.7721C9.65573 16.6556 10.5939 17.1846 11.3943 16.801C13.0966 15.9852 14.741 14.7609 16.0468 13.3976C16.5303 12.8928 16.5303 12.0966 16.0468 11.5917L15.9434 11.4838C14.6377 10.1205 13.0966 9.00412 11.3943 8.18829C10.5939 7.80469 9.65573 8.33377 9.56987 9.21721L9.51359 9.79626C9.50616 9.8727 9.49904 9.94917 9.49225 10.0257L4.68746 10.0257C3.96834 10.0257 3.38538 10.6086 3.38538 11.3277V13.6616ZM10.9929 14.0944C10.9486 13.7017 10.6159 13.4012 10.2166 13.4012H4.94788L4.94788 11.5882H10.2166C10.6292 11.5882 10.9706 11.2673 10.9963 10.8555C11.0152 10.5525 11.0394 10.2498 11.0688 9.94741L11.0851 9.77934C12.4443 10.4798 13.6814 11.3967 14.7476 12.4947C14.3024 12.9531 13.8274 13.38 13.3262 13.7727C12.6271 14.3206 11.8768 14.802 11.0851 15.21L11.0688 15.0419C11.0394 14.7396 11.0152 14.4368 10.9963 14.1338C10.9955 14.1206 10.9944 14.1074 10.9929 14.0944Z" fill="white"/>
</svg>
