<svg width="42" height="42" viewBox="0 0 42 42" fill="none" xmlns="http://www.w3.org/2000/svg">
<circle cx="21" cy="21" r="21" fill="#FFCF97"/>
<path fill-rule="evenodd" clip-rule="evenodd" d="M30.2798 19.6679C31.4784 20.5952 31.4784 22.4047 30.2798 23.332C26.6578 26.1346 22.6133 28.3436 18.2977 29.8764L17.5093 30.1564C16.0009 30.6921 14.4077 29.6716 14.2035 28.1146C13.633 23.7643 13.633 19.2355 14.2035 14.8853C14.4077 13.3283 16.0009 12.3078 17.5093 12.8435L18.2977 13.1235C22.6133 14.6562 26.6578 16.8652 30.2798 19.6679ZM29.1707 21.8985C29.4314 21.6968 29.4314 21.3031 29.1707 21.1013C25.7005 18.4163 21.8257 16.2999 17.6911 14.8315L16.9026 14.5514C16.51 14.412 16.0588 14.6778 16.0006 15.121C15.4506 19.3148 15.4506 23.6851 16.0006 27.8789C16.0588 28.3221 16.51 28.5879 16.9026 28.4484L17.6911 28.1684C21.8257 26.7 25.7005 24.5836 29.1707 21.8985Z" fill="black"/>
</svg>
