<svg width="32" height="32" viewBox="0 0 32 32" fill="none" xmlns="http://www.w3.org/2000/svg">
<circle cx="16" cy="16" r="16" fill="#FFF59D"/>
<path d="M7.81378 15.1254V24.1923C7.81378 24.7211 8.24246 25.1498 8.77126 25.1498H13.5587V15.1254C13.5587 14.5966 13.13 14.168 12.6012 14.168H8.77126C8.24246 14.168 7.81378 14.5966 7.81378 15.1254Z" stroke="#1C1C1C" stroke-width="1.7" stroke-linecap="round"/>
<path d="M24.0909 16.832H20.2609C19.7321 16.832 19.3035 17.2607 19.3035 17.7895V25.1529H24.0909C24.6197 25.1529 25.0483 24.7242 25.0483 24.1954V17.7895C25.0483 17.2607 24.6197 16.832 24.0909 16.832Z" stroke="#1C1C1C" stroke-width="1.7" stroke-linecap="round"/>
<path d="M13.5586 7.8044V14.1681V25.1499H19.3035V7.8044C19.3035 7.2756 18.8748 6.84692 18.346 6.84692H14.5161C13.9873 6.84692 13.5586 7.2756 13.5586 7.8044Z" stroke="#1C1C1C" stroke-width="1.7" stroke-linecap="round"/>
</svg>
