<svg width="44" height="44" viewBox="0 0 44 44" fill="none" xmlns="http://www.w3.org/2000/svg">
<g filter="url(#filter0_d_2180_1943)">
<circle cx="22" cy="18" r="18" fill="#C29800"/>
<path fill-rule="evenodd" clip-rule="evenodd" d="M17.449 13.777C17.449 11.3124 19.447 9.31445 21.9115 9.31445C24.3761 9.31445 26.374 11.3124 26.374 13.777C26.374 16.2415 24.3761 18.2395 21.9115 18.2395C19.447 18.2395 17.449 16.2415 17.449 13.777ZM21.9115 10.8895C20.3168 10.8895 19.024 12.1822 19.024 13.777C19.024 15.3717 20.3168 16.6645 21.9115 16.6645C23.5063 16.6645 24.799 15.3717 24.799 13.777C24.799 12.1822 23.5063 10.8895 21.9115 10.8895Z" fill="black"/>
<path fill-rule="evenodd" clip-rule="evenodd" d="M17.7115 21.3895C16.4068 21.3895 15.349 22.4472 15.349 23.752V24.9996C15.349 25.0186 15.3628 25.0348 15.3816 25.0379C19.7063 25.744 24.1168 25.744 28.4415 25.0379C28.4603 25.0348 28.474 25.0186 28.474 24.9996V23.752C28.474 22.4472 27.4163 21.3895 26.1115 21.3895H25.7536C25.726 21.3895 25.6985 21.3938 25.6722 21.4024L24.7634 21.6992C22.9103 22.3042 20.9128 22.3042 19.0597 21.6992L18.1509 21.4024C18.1246 21.3938 18.0971 21.3895 18.0695 21.3895H17.7115ZM13.774 23.752C13.774 21.5773 15.5369 19.8145 17.7115 19.8145H18.0695C18.2632 19.8145 18.4557 19.8451 18.6398 19.9052L19.5486 20.202C21.084 20.7033 22.7391 20.7033 24.2745 20.202L25.1833 19.9052C25.3674 19.8451 25.5599 19.8145 25.7536 19.8145H26.1115C28.2862 19.8145 30.049 21.5773 30.049 23.752V24.9996C30.049 25.7905 29.4759 26.4649 28.6953 26.5923C24.2025 27.3258 19.6206 27.3258 15.1278 26.5923C14.3472 26.4649 13.774 25.7905 13.774 24.9996V23.752Z" fill="black"/>
</g>
<defs>
<filter id="filter0_d_2180_1943" x="0" y="0" width="44" height="44" filterUnits="userSpaceOnUse" color-interpolation-filters="sRGB">
<feFlood flood-opacity="0" result="BackgroundImageFix"/>
<feColorMatrix in="SourceAlpha" type="matrix" values="0 0 0 0 0 0 0 0 0 0 0 0 0 0 0 0 0 0 127 0" result="hardAlpha"/>
<feOffset dy="4"/>
<feGaussianBlur stdDeviation="2"/>
<feComposite in2="hardAlpha" operator="out"/>
<feColorMatrix type="matrix" values="0 0 0 0 0 0 0 0 0 0 0 0 0 0 0 0 0 0 0.25 0"/>
<feBlend mode="normal" in2="BackgroundImageFix" result="effect1_dropShadow_2180_1943"/>
<feBlend mode="normal" in="SourceGraphic" in2="effect1_dropShadow_2180_1943" result="shape"/>
</filter>
</defs>
</svg>
