<svg width="33" height="32" viewBox="0 0 33 32" fill="none" xmlns="http://www.w3.org/2000/svg">
<ellipse cx="16.2088" cy="16" rx="16.1237" ry="16" fill="#FF4365"/>
<path d="M7 13C12.84 11.05 19.16 11.05 25 13M7 20V19C12.84 20.95 19.16 20.95 25 19V20M19 7C20.95 12.84 20.95 19.16 19 25M12 7H13C11.05 12.84 11.05 19.16 13 25H12M26 16C26 21.5228 21.5228 26 16 26C10.4772 26 6 21.5228 6 16C6 10.4772 10.4772 6 16 6C21.5228 6 26 10.4772 26 16Z" stroke="#282828" stroke-width="1.5" stroke-linecap="round" stroke-linejoin="round"/>
</svg>
