<svg width="69" height="69" viewBox="0 0 69 69" fill="none" xmlns="http://www.w3.org/2000/svg">
<g filter="url(#filter0_d_1182_1385)">
<circle cx="34.5" cy="30.5" r="30.5" fill="#00FFC2"/>
<path fill-rule="evenodd" clip-rule="evenodd" d="M26.7885 23.3437C26.7885 19.1676 30.1739 15.7822 34.3499 15.7822C38.526 15.7822 41.9114 19.1676 41.9114 23.3437C41.9114 27.5198 38.526 30.9051 34.3499 30.9051C30.1739 30.9051 26.7885 27.5198 26.7885 23.3437ZM34.3499 18.451C31.6478 18.451 29.4572 20.6415 29.4572 23.3437C29.4572 26.0459 31.6478 28.2364 34.3499 28.2364C37.0521 28.2364 39.2426 26.0459 39.2426 23.3437C39.2426 20.6415 37.0521 18.451 34.3499 18.451Z" fill="black"/>
<path fill-rule="evenodd" clip-rule="evenodd" d="M27.2333 36.2426C25.0224 36.2426 23.2302 38.0349 23.2302 40.2458V42.3599C23.2302 42.3921 23.2535 42.4196 23.2853 42.4247C30.6132 43.6211 38.0867 43.6211 45.4146 42.4247C45.4464 42.4196 45.4697 42.3921 45.4697 42.3599V40.2458C45.4697 38.0349 43.6775 36.2426 41.4666 36.2426H40.8601C40.8133 36.2426 40.7667 36.2501 40.7221 36.2646L39.1822 36.7674C36.0423 37.7927 32.6576 37.7927 29.5177 36.7674L27.9778 36.2646C27.9332 36.2501 27.8866 36.2426 27.8397 36.2426H27.2333ZM20.5614 40.2458C20.5614 36.561 23.5485 33.5739 27.2333 33.5739H27.8397C28.168 33.5739 28.4942 33.6258 28.8062 33.7277L30.3461 34.2305C32.9477 35.08 35.7522 35.08 38.3538 34.2305L39.8937 33.7277C40.2057 33.6258 40.5319 33.5739 40.8601 33.5739H41.4666C45.1514 33.5739 48.1385 36.561 48.1385 40.2458V42.3599C48.1385 43.7 47.1673 44.8427 45.8447 45.0586C38.2319 46.3015 30.468 46.3015 22.8552 45.0586C21.5326 44.8427 20.5614 43.7 20.5614 42.3599V40.2458Z" fill="black"/>
</g>
<defs>
<filter id="filter0_d_1182_1385" x="0" y="0" width="69" height="69" filterUnits="userSpaceOnUse" color-interpolation-filters="sRGB">
<feFlood flood-opacity="0" result="BackgroundImageFix"/>
<feColorMatrix in="SourceAlpha" type="matrix" values="0 0 0 0 0 0 0 0 0 0 0 0 0 0 0 0 0 0 127 0" result="hardAlpha"/>
<feOffset dy="4"/>
<feGaussianBlur stdDeviation="2"/>
<feComposite in2="hardAlpha" operator="out"/>
<feColorMatrix type="matrix" values="0 0 0 0 0 0 0 0 0 0 0 0 0 0 0 0 0 0 0.25 0"/>
<feBlend mode="normal" in2="BackgroundImageFix" result="effect1_dropShadow_1182_1385"/>
<feBlend mode="normal" in="SourceGraphic" in2="effect1_dropShadow_1182_1385" result="shape"/>
</filter>
</defs>
</svg>
