<svg width="42" height="42" viewBox="0 0 42 42" fill="none" xmlns="http://www.w3.org/2000/svg">
<circle cx="21" cy="21" r="21" fill="#FFCF97"/>
<path fill-rule="evenodd" clip-rule="evenodd" d="M13.3496 12.4998C13.2297 11.0602 14.8427 10.2642 15.9499 11.0038L16.308 11.2431C21.7692 14.8914 26.8803 19.0085 31.5792 23.5449C32.7498 24.675 31.7176 26.4584 30.2569 26.302L23.8934 25.6205C23.2455 25.5511 22.6484 25.8994 22.4026 26.442L19.8305 32.1175C19.2093 33.4883 17.1631 33.3609 16.756 31.882C15.0465 25.6722 13.9181 19.3258 13.3845 12.9197L13.3496 12.4998ZM15.1826 12.671L15.1908 12.7693C15.7017 18.9032 16.7677 24.9818 18.3764 30.9351L20.7517 25.6938C21.3322 24.4128 22.6897 23.6687 24.0864 23.8183L29.8948 24.4404C25.3916 20.1406 20.5086 16.2289 15.3012 12.7502L15.1826 12.671Z" fill="black"/>
</svg>
