<svg width="28" height="28" viewBox="0 0 28 28" fill="none" xmlns="http://www.w3.org/2000/svg">
<path d="M7.63633 9.52322C7.38524 9.45697 7.17655 9.28262 7.06669 9.04732C6.95684 8.81202 6.95717 8.54008 7.06761 8.30505L9.00515 4.1816C9.14954 3.87431 9.45865 3.67829 9.79817 3.67871C10.1377 3.67913 10.4463 3.87592 10.5899 4.18356L11.4447 6.01433C11.4752 6.00232 11.5068 5.99191 11.5392 5.98321C16.6112 4.62419 21.8244 7.63409 23.1835 12.706C24.5425 17.7779 21.5326 22.9912 16.4607 24.3502C11.3888 25.7092 6.17547 22.6993 4.81646 17.6274C4.3843 16.0146 4.39402 14.3849 4.77253 12.8697C4.88965 12.4008 5.36466 12.1157 5.8335 12.2328C6.30234 12.35 6.58747 12.825 6.47035 13.2938C6.16201 14.5281 6.15351 15.8559 6.50683 17.1745C7.61569 21.3128 11.8694 23.7687 16.0077 22.6598C20.1461 21.551 22.602 17.2973 21.4931 13.1589C20.4024 9.08825 16.2688 6.64547 12.1953 7.62203L13.0576 9.46922C13.2013 9.77686 13.154 10.1398 12.9363 10.4004C12.7186 10.6609 12.3699 10.772 12.0416 10.6854L7.63633 9.52322Z" fill="#E33342"/>
</svg>
