<svg width="38" height="38" viewBox="0 0 38 38" fill="none" xmlns="http://www.w3.org/2000/svg">
<g filter="url(#filter0_dd_2017_1811)">
<path d="M14.5228 18.1874C15.1264 20.0239 16.8552 21.3499 18.8937 21.3499C21.4342 21.3499 23.4937 19.2904 23.4937 16.7499C23.4937 14.2094 21.4342 12.1499 18.8937 12.1499C17.1911 12.1499 15.7045 13.075 14.9091 14.4499M16.3062 15.0249H14.0062V12.7249" stroke="#E33342" stroke-width="2" stroke-linecap="round" stroke-linejoin="round"/>
<path d="M15.25 7.50002H22.75M10 6V24C10 25.6569 11.3431 27 13 27H25C26.6569 27 28 25.6569 28 24V6.00002C28 4.34316 26.6569 3.00002 25 3.00002L13 3C11.3431 3 10 4.34314 10 6ZM19 21H19.1063V21.0961H19V21Z" stroke="#E33342" stroke-width="2" stroke-linecap="round" stroke-linejoin="round"/>
</g>
<defs>
<filter id="filter0_dd_2017_1811" x="0" y="0" width="38" height="38" filterUnits="userSpaceOnUse" color-interpolation-filters="sRGB">
<feFlood flood-opacity="0" result="BackgroundImageFix"/>
<feColorMatrix in="SourceAlpha" type="matrix" values="0 0 0 0 0 0 0 0 0 0 0 0 0 0 0 0 0 0 127 0" result="hardAlpha"/>
<feOffset dy="4"/>
<feGaussianBlur stdDeviation="2"/>
<feComposite in2="hardAlpha" operator="out"/>
<feColorMatrix type="matrix" values="0 0 0 0 0 0 0 0 0 0 0 0 0 0 0 0 0 0 0.25 0"/>
<feBlend mode="normal" in2="BackgroundImageFix" result="effect1_dropShadow_2017_1811"/>
<feColorMatrix in="SourceAlpha" type="matrix" values="0 0 0 0 0 0 0 0 0 0 0 0 0 0 0 0 0 0 127 0" result="hardAlpha"/>
<feOffset dy="4"/>
<feGaussianBlur stdDeviation="2"/>
<feComposite in2="hardAlpha" operator="out"/>
<feColorMatrix type="matrix" values="0 0 0 0 0 0 0 0 0 0 0 0 0 0 0 0 0 0 0.25 0"/>
<feBlend mode="normal" in2="effect1_dropShadow_2017_1811" result="effect2_dropShadow_2017_1811"/>
<feBlend mode="normal" in="SourceGraphic" in2="effect2_dropShadow_2017_1811" result="shape"/>
</filter>
</defs>
</svg>
