<svg width="35" height="35" viewBox="0 0 35 35" fill="none" xmlns="http://www.w3.org/2000/svg">
<path d="M12.2766 21.219C12.9808 23.3616 14.9978 24.9086 17.376 24.9086C20.34 24.9086 22.7427 22.5059 22.7427 19.542C22.7427 16.578 20.34 14.1753 17.376 14.1753C15.3896 14.1753 13.6553 15.2545 12.7273 16.8586M14.3573 17.5295H11.674V14.8461" stroke="#E33342" stroke-width="2" stroke-linecap="round" stroke-linejoin="round"/>
<path d="M13.125 8.75003H21.875M7 7V28C7 29.933 8.567 31.5 10.5 31.5H24.5C26.433 31.5 28 29.933 28 28V7.00002C28 5.06702 26.433 3.50002 24.5 3.50002L10.5 3.5C8.56701 3.5 7 5.067 7 7ZM17.5 24.5H17.624V24.6121H17.5V24.5Z" stroke="#E33342" stroke-width="2" stroke-linecap="round" stroke-linejoin="round"/>
</svg>
