<svg width="15" height="15" viewBox="0 0 15 15" fill="none" xmlns="http://www.w3.org/2000/svg">
<path fill-rule="evenodd" clip-rule="evenodd" d="M9.45159 10.366C7.16681 12.1959 3.82237 12.0519 1.70439 9.93389C-0.568129 7.66138 -0.568129 3.9769 1.70439 1.70439C3.9769 -0.568129 7.66138 -0.568129 9.93389 1.70439C12.0519 3.82236 12.1959 7.1668 10.366 9.45158L14.8106 13.8962C15.0631 14.1487 15.0631 14.5581 14.8106 14.8106C14.5581 15.0631 14.1487 15.0631 13.8962 14.8106L9.45159 10.366ZM2.61878 9.0195C0.851264 7.25199 0.851264 4.38629 2.61878 2.61878C4.38629 0.851264 7.25199 0.851264 9.0195 2.61878C10.7857 4.38499 10.787 7.24778 9.02339 9.01561C9.02209 9.01689 9.02079 9.01818 9.01949 9.01948C9.01819 9.02078 9.0169 9.02208 9.01562 9.02339C7.24779 10.787 4.38499 10.7857 2.61878 9.0195Z" fill="#A4A6BB"/>
</svg>
