<svg width="17" height="17" viewBox="0 0 17 17" fill="none" xmlns="http://www.w3.org/2000/svg">
<path fill-rule="evenodd" clip-rule="evenodd" d="M10.4516 11.366C8.16681 13.1959 4.82237 13.0519 2.70439 10.9339C0.431871 8.66138 0.431871 4.9769 2.70439 2.70439C4.9769 0.431871 8.66138 0.431871 10.9339 2.70439C13.0519 4.82236 13.1959 8.1668 11.366 10.4516L15.8106 14.8962C16.0631 15.1487 16.0631 15.5581 15.8106 15.8106C15.5581 16.0631 15.1487 16.0631 14.8962 15.8106L10.4516 11.366ZM3.61878 10.0195C1.85126 8.25199 1.85126 5.38629 3.61878 3.61878C5.38629 1.85126 8.25199 1.85126 10.0195 3.61878C11.7857 5.38499 11.787 8.24778 10.0234 10.0156C10.0221 10.0169 10.0208 10.0182 10.0195 10.0195C10.0182 10.0208 10.0169 10.0221 10.0156 10.0234C8.24779 11.787 5.38499 11.7857 3.61878 10.0195Z" fill="#A4A6BB"/>
<path fill-rule="evenodd" clip-rule="evenodd" d="M10.4516 11.366C8.16681 13.1959 4.82237 13.0519 2.70439 10.9339C0.431871 8.66138 0.431871 4.9769 2.70439 2.70439C4.9769 0.431871 8.66138 0.431871 10.9339 2.70439C13.0519 4.82236 13.1959 8.1668 11.366 10.4516L15.8106 14.8962C16.0631 15.1487 16.0631 15.5581 15.8106 15.8106C15.5581 16.0631 15.1487 16.0631 14.8962 15.8106L10.4516 11.366ZM3.61878 10.0195C1.85126 8.25199 1.85126 5.38629 3.61878 3.61878C5.38629 1.85126 8.25199 1.85126 10.0195 3.61878C11.7857 5.38499 11.787 8.24778 10.0234 10.0156C10.0221 10.0169 10.0208 10.0182 10.0195 10.0195C10.0182 10.0208 10.0169 10.0221 10.0156 10.0234C8.24779 11.787 5.38499 11.7857 3.61878 10.0195Z" stroke="black" stroke-linecap="round"/>
<path fill-rule="evenodd" clip-rule="evenodd" d="M10.4516 11.366C8.16681 13.1959 4.82237 13.0519 2.70439 10.9339C0.431871 8.66138 0.431871 4.9769 2.70439 2.70439C4.9769 0.431871 8.66138 0.431871 10.9339 2.70439C13.0519 4.82236 13.1959 8.1668 11.366 10.4516L15.8106 14.8962C16.0631 15.1487 16.0631 15.5581 15.8106 15.8106C15.5581 16.0631 15.1487 16.0631 14.8962 15.8106L10.4516 11.366ZM3.61878 10.0195C1.85126 8.25199 1.85126 5.38629 3.61878 3.61878C5.38629 1.85126 8.25199 1.85126 10.0195 3.61878C11.7857 5.38499 11.787 8.24778 10.0234 10.0156C10.0221 10.0169 10.0208 10.0182 10.0195 10.0195C10.0182 10.0208 10.0169 10.0221 10.0156 10.0234C8.24779 11.787 5.38499 11.7857 3.61878 10.0195Z" stroke="black" stroke-opacity="0.2" stroke-linecap="round"/>
</svg>
