<svg width="30" height="30" viewBox="0 0 30 30" fill="none" xmlns="http://www.w3.org/2000/svg">
<path fill-rule="evenodd" clip-rule="evenodd" d="M9.06252 9.06244V8.91259C9.06252 6.20291 10.897 3.83699 13.5213 3.16217C14.4913 2.91274 15.5087 2.91274 16.4787 3.16217C19.103 3.83699 20.9375 6.20292 20.9375 8.9126V9.06244H22.8139C23.528 9.06244 24.1341 9.58617 24.2376 10.2927L24.5109 12.1583C25.0491 15.8314 25.0491 19.5633 24.5109 23.2363C24.251 25.0101 22.8207 26.3814 21.0375 26.5664L20.2514 26.6479C16.7598 27.01 13.2402 27.01 9.7486 26.6479L8.96252 26.5664C7.17934 26.3814 5.74898 25.0101 5.48908 23.2363C4.9509 19.5633 4.9509 15.8314 5.48908 12.1583L5.76243 10.2927C5.86595 9.58617 6.47201 9.06244 7.18611 9.06244H9.06252ZM13.9883 4.9781C14.652 4.80743 15.3481 4.80743 16.0117 4.9781C17.8073 5.43982 19.0625 7.05861 19.0625 8.9126V9.06244H10.9375V8.91259C10.9375 7.0586 12.1927 5.43982 13.9883 4.9781ZM9.06252 10.9374V13.7499C9.06252 14.2677 9.48225 14.6874 10 14.6874C10.5178 14.6874 10.9375 14.2677 10.9375 13.7499V10.9374H19.0625V13.7499C19.0625 14.2677 19.4823 14.6874 20 14.6874C20.5178 14.6874 20.9375 14.2677 20.9375 13.7499V10.9374H22.437L22.6558 12.4301C23.1675 15.9229 23.1675 19.4717 22.6558 22.9645C22.5202 23.8897 21.7742 24.6049 20.8441 24.7014L20.058 24.7829C16.695 25.1316 13.305 25.1316 9.94201 24.7829L9.15592 24.7014C8.22587 24.6049 7.47983 23.8897 7.34428 22.9645C6.83251 19.4717 6.83251 15.9229 7.34428 12.4301L7.56298 10.9374H9.06252Z" fill="#E33342"/>
</svg>
