<svg width="30" height="30" viewBox="0 0 30 30" fill="none" xmlns="http://www.w3.org/2000/svg">
<path fill-rule="evenodd" clip-rule="evenodd" d="M7.81361 7.62686V7.43912C7.81361 4.04415 10.034 1.07987 13.2103 0.234385C14.3843 -0.0781283 15.6157 -0.0781284 16.7897 0.234385C19.966 1.07987 22.1864 4.04415 22.1864 7.43913V7.62686H24.4575C25.3218 7.62686 26.0553 8.28305 26.1806 9.16829L26.5115 11.5057C27.1628 16.1077 27.1628 20.7834 26.5115 25.3854C26.1969 27.6078 24.4657 29.3259 22.3074 29.5576L21.356 29.6598C17.13 30.1134 12.87 30.1134 8.64401 29.6598L7.69257 29.5576C5.53432 29.3259 3.8031 27.6078 3.48853 25.3854C2.83715 20.7834 2.83716 16.1077 3.48854 11.5057L3.81937 9.16829C3.94467 8.28304 4.67821 7.62686 5.54251 7.62686H7.81361ZM13.7755 2.50957C14.5788 2.29574 15.4212 2.29574 16.2245 2.50957C18.3978 3.08806 19.917 5.11625 19.917 7.43913V7.62686H10.083V7.43912C10.083 5.11625 11.6022 3.08806 13.7755 2.50957ZM7.81361 9.97606V13.4999C7.81361 14.1486 8.32163 14.6745 8.9483 14.6745C9.57498 14.6745 10.083 14.1486 10.083 13.4999V9.97606H19.917V13.4999C19.917 14.1486 20.425 14.6745 21.0517 14.6745C21.6784 14.6745 22.1864 14.1486 22.1864 13.4999V9.97606H24.0013L24.2661 11.8462C24.8855 16.2224 24.8855 20.6687 24.2661 25.0448C24.102 26.204 23.199 27.1001 22.0733 27.221L21.1219 27.3231C17.0515 27.76 12.9485 27.76 8.87809 27.3231L7.92666 27.221C6.80098 27.1001 5.89802 26.204 5.73395 25.0448C5.11453 20.6687 5.11453 16.2224 5.73395 11.8462L5.99866 9.97606H7.81361Z" fill="#E33342"/>
</svg>
