<svg width="42" height="42" viewBox="0 0 42 42" fill="none" xmlns="http://www.w3.org/2000/svg">
<circle cx="21" cy="21" r="21" fill="#FFD772"/>
<path fill-rule="evenodd" clip-rule="evenodd" d="M19.4864 13.1141C20.1608 11.9519 21.8392 11.9519 22.5136 13.1141L24.579 16.6735C24.7694 17.0016 25.0984 17.2255 25.4735 17.2821L28.9031 17.8001C30.3981 18.0259 30.9225 19.9135 29.7582 20.8781L27.2593 22.9484C26.9086 23.239 26.7437 23.6974 26.8289 24.1448L27.5289 27.8208C27.8031 29.2607 26.2914 30.3795 24.9944 29.6966L21.5824 27.9C21.2179 27.7081 20.7822 27.7081 20.4176 27.9L17.0056 29.6966C15.7086 30.3795 14.197 29.2607 14.4712 27.8208L15.1711 24.1448C15.2563 23.6974 15.0914 23.239 14.7407 22.9484L12.2418 20.8781C11.0775 19.9135 11.6019 18.0259 13.0969 17.8001L16.5265 17.2821C16.9016 17.2255 17.2307 17.0016 17.421 16.6735L19.4864 13.1141ZM21.2162 13.867C21.1199 13.7009 20.8801 13.7009 20.7838 13.867L18.7184 17.4263C18.2996 18.1481 17.5757 18.6407 16.7506 18.7653L13.3209 19.2833C13.1073 19.3156 13.0324 19.5852 13.1988 19.723L15.6977 21.7933C16.4693 22.4326 16.8321 23.441 16.6447 24.4254L15.9447 28.1014C15.9055 28.3071 16.1215 28.4669 16.3067 28.3693L19.7188 26.5727C20.5207 26.1505 21.4793 26.1505 22.2812 26.5727L25.6933 28.3693C25.8786 28.4669 26.0945 28.3071 26.0553 28.1014L25.3554 24.4254C25.1679 23.441 25.5307 22.4326 26.3024 21.7933L28.8013 19.723C28.9676 19.5852 28.8927 19.3156 28.6791 19.2833L25.2495 18.7653C24.4243 18.6407 23.7004 18.1481 23.2816 17.4263L21.2162 13.867Z" fill="black"/>
</svg>
