<svg width="30" height="30" viewBox="0 0 30 30" fill="none" xmlns="http://www.w3.org/2000/svg">
<path opacity="0.15" d="M24.2361 6.25H5.76389C4.30647 6.25 3.125 7.55584 3.125 9.16667V20.8333C3.125 22.4442 4.30647 23.75 5.76389 23.75H24.2361C25.6935 23.75 26.875 22.4442 26.875 20.8333V18.75H17.5C17.5 18.75 13.75 18.75 13.75 15C13.75 11.25 17.5 11.25 17.5 11.25H26.875V9.16667C26.875 7.55584 25.6935 6.25 24.2361 6.25Z" fill="#E33342"/>
<path d="M26.875 12C27.2892 12 27.625 11.6642 27.625 11.25C27.625 10.8358 27.2892 10.5 26.875 10.5V12ZM26.875 19.5C27.2892 19.5 27.625 19.1642 27.625 18.75C27.625 18.3358 27.2892 18 26.875 18V19.5ZM18.25 15C18.25 14.5858 17.9142 14.25 17.5 14.25C17.0858 14.25 16.75 14.5858 16.75 15H18.25ZM16.75 15.0125C16.75 15.4267 17.0858 15.7625 17.5 15.7625C17.9142 15.7625 18.25 15.4267 18.25 15.0125H16.75ZM5.76389 7H24.2361V5.5H5.76389V7ZM24.2361 23H5.76389V24.5H24.2361V23ZM3.875 20.8333V9.16667H2.375V20.8333H3.875ZM5.76389 23C4.78954 23 3.875 22.1023 3.875 20.8333H2.375C2.375 22.786 3.8234 24.5 5.76389 24.5V23ZM26.125 20.8333C26.125 22.1023 25.2105 23 24.2361 23V24.5C26.1766 24.5 27.625 22.786 27.625 20.8333H26.125ZM24.2361 7C25.2105 7 26.125 7.89766 26.125 9.16667H27.625C27.625 7.21401 26.1766 5.5 24.2361 5.5V7ZM5.76389 5.5C3.8234 5.5 2.375 7.21401 2.375 9.16667H3.875C3.875 7.89766 4.78954 7 5.76389 7V5.5ZM17.5 12H26.875V10.5H17.5V12ZM26.875 18H17.5V19.5H26.875V18ZM17.5 18C15.8431 18 14.5 16.6569 14.5 15H13C13 17.4853 15.0147 19.5 17.5 19.5V18ZM17.5 10.5C15.0147 10.5 13 12.5147 13 15H14.5C14.5 13.3431 15.8431 12 17.5 12V10.5ZM16.75 15V15.0125H18.25V15H16.75ZM26.125 9.16667V20.8333H27.625V9.16667H26.125Z" fill="#E33342"/>
</svg>
