<svg width="42" height="42" viewBox="0 0 42 42" fill="none" xmlns="http://www.w3.org/2000/svg">
<circle cx="21" cy="21" r="21" fill="#C1FF72"/>
<g filter="url(#filter0_d_710_1053)">
<path fill-rule="evenodd" clip-rule="evenodd" d="M13.6333 11.5861C13.6333 10.8758 14.2091 10.3 14.9194 10.3H27.0806C27.7869 10.3 28.3667 10.8693 28.3667 11.5836V11.5937V11.6039V11.6141V11.6242V11.6344V11.6446V11.6549V11.6651V11.6753V11.6856V11.6958V11.7061V11.7164V11.7267V11.737V11.7473V11.7576V11.768V11.7783V11.7887V11.7991V11.8094V11.8198V11.8302V11.8407V11.8511V11.8615V11.872V11.8824V11.8929V11.9034V11.9139V11.9244V11.9349V11.9454V11.956V11.9665V11.9771V11.9876V11.9982V12.0088V12.0194V12.03V12.0406V12.0512V12.0619V12.0725V12.0832V12.0939V12.1045V12.1152V12.1259V12.1366V12.1474V12.1581V12.1688V12.1796V12.1904V12.2011V12.2119V12.2227V12.2335V12.2443V12.2551V12.266V12.2768V12.2876V12.2985V12.3094V12.3203V12.3311V12.342V12.3529V12.3639V12.3748V12.3857V12.3967V12.4076V12.4186V12.4296V12.4405V12.4515V12.4625V12.4736V12.4846V12.4956V12.5066V12.5177V12.5223H28.7778C30.3917 12.5223 31.7 13.8306 31.7 15.4445V16.8967C31.7 18.0231 31.0526 19.0492 30.036 19.5341L27.9681 20.5207C27.9029 20.5518 27.8353 20.5719 27.7675 20.5818C26.7259 22.9966 24.4296 24.7433 21.7 25.0006V26.9667H23.5926C24.2249 26.9667 24.8401 27.1718 25.3459 27.5512L26.5311 28.4401C27.9235 29.4844 27.1849 31.7001 25.4444 31.7001H16.5556C14.8151 31.7001 14.0765 29.4844 15.4689 28.4401L16.6541 27.5512C17.1599 27.1718 17.7751 26.9667 18.4074 26.9667H20.3V25.0006C17.5704 24.7433 15.2742 22.9966 14.2326 20.5818C14.1647 20.572 14.0971 20.5518 14.0319 20.5207L11.9639 19.5341C10.9473 19.0492 10.3 18.0231 10.3 16.8967V15.4445C10.3 13.8306 11.6083 12.5223 13.2222 12.5223H13.6333V11.5861ZM26.9667 17.6669C26.9667 20.9615 24.2965 23.6322 21.0022 23.6334H21C17.7047 23.6334 15.0333 20.962 15.0333 17.6667V11.7H26.9667V11.7061V11.7164V11.7267V11.737V11.7473V11.7576V11.768V11.7783V11.7887V11.7991V11.8094V11.8198V11.8302V11.8407V11.8511V11.8615V11.872V11.8824V11.8929V11.9034V11.9139V11.9244V11.9349V11.9454V11.956V11.9665V11.9771V11.9876V11.9982V12.0088V12.0194V12.03V12.0406V12.0512V12.0619V12.0725V12.0832V12.0939V12.1045V12.1152V12.1259V12.1366V12.1474V12.1581V12.1688V12.1796V12.1904V12.2011V12.2119V12.2227V12.2335V12.2443V12.2551V12.266V12.2768V12.2876V12.2985V12.3094V12.3203V12.3311V12.342V12.3529V12.3639V12.3748V12.3857V12.3967V12.4076V12.4186V12.4296V12.4405V12.4515V12.4625V12.4736V12.4846V12.4956V12.5066V12.5177V12.5287V12.5398V12.5509V12.562V12.5731V12.5842V12.5953V12.6064V12.6175V12.6287V12.6398V12.651V12.6621V12.6733V12.6845V12.6957V12.7069V12.7181V12.7293V12.7405V12.7517V12.763V12.7742V12.7855V12.7968V12.808V12.8193V12.8306V12.8419V12.8532V12.8645V12.8759V12.8872V12.8985V12.9099V12.9213V12.9326V12.944V12.9554V12.9668V12.9782V12.9896V13.001V13.0124V13.0238V13.0353V13.0467V13.0582V13.0696V13.0811V13.0926V13.1041V13.1156V13.1271V13.1386V13.1501V13.1616V13.1731V13.1847V13.1962V13.2078V13.2193V13.2309V13.2425V13.254V13.2656V13.2772V13.2888V13.3004V13.3121V13.3237V13.3353V13.347V13.3586V13.3703V13.3819V13.3936V13.4053V13.4169V13.4286V13.4403V13.452V13.4637V13.4755V13.4872V13.4989V13.5106V13.5224V13.5341V13.5459V13.5576V13.5694V13.5812V13.593V13.6048V13.6166V13.6284V13.6402V13.652V13.6638V13.6756V13.6875V13.6993V13.7111V13.723V13.7349V13.7467V13.7586V13.7705V13.7823V13.7942V13.8061V13.818V13.8299V13.8418V13.8538V13.8657V13.8776V13.8896V13.9015V13.9134V13.9254V13.9374V13.9493V13.9613V13.9733V13.9852V13.9972V14.0092V14.0212V14.0332V14.0452V14.0572V14.0693V14.0813V14.0933V14.1053V14.1174V14.1294V14.1415V14.1535V14.1656V14.1777V14.1897V14.2018V14.2139V14.226V14.2381V14.2502V14.2623V14.2744V14.2865V14.2986V14.3107V14.3229V14.335V14.3471V14.3593V14.3714V14.3836V14.3957V14.4079V14.42V14.4322V14.4444V14.4565V14.4687V14.4809V14.4931V14.5053V14.5175V14.5297V14.5419V14.5541V14.5663V14.5786V14.5908V14.603V14.6152V14.6275V14.6397V14.652V14.6642V14.6765V14.6887V14.701V14.7132V14.7255V14.7378V14.7501V14.7623V14.7746V14.7869V14.7992V14.8115V14.8238V14.8361V14.8484V14.8607V14.873V14.8853V14.8977V14.91V14.9223V14.9346V14.947V14.9593V14.9716V14.984V14.9963V15.0087V15.021V15.0334V15.0458V15.0581V15.0705V15.0829V15.0952V15.1076V15.12V15.1324V15.1447V15.1571V15.1695V15.1819V15.1943V15.2067V15.2191V15.2315V15.2439V15.2563V15.2687V15.2811V15.2936V15.306V15.3184V15.3308V15.3432V15.3557V15.3681V15.3805V15.393V15.4054V15.4179V15.4303V15.4427V15.4552V15.4676V15.4801V15.4925V15.505V15.5175V15.5299V15.5424V15.5548V15.5673V15.5798V15.5922V15.6047V15.6172V15.6297V15.6421V15.6546V15.6671V15.6796V15.6921V15.7046V15.717V15.7295V15.742V15.7545V15.767V15.7795V15.792V15.8045V15.817V15.8295V15.842V15.8545V15.867V15.8795V15.892V15.9045V15.917V15.9296V15.9421V15.9546V15.9671V15.9796V15.9921V16.0046V16.0172V16.0297V16.0422V16.0547V16.0672V16.0798V16.0923V16.1048V16.1173V16.1299V16.1424V16.1549V16.1674V16.18V16.1925V16.205V16.2175V16.2301V16.2426V16.2551V16.2677V16.2802V16.2927V16.3053V16.3178V16.3303V16.3429V16.3554V16.3679V16.3805V16.393V16.4055V16.4181V16.4306V16.4431V16.4557V16.4682V16.4807V16.4933V16.5058V16.5183V16.5309V16.5434V16.5559V16.5685V16.581V16.5935V16.6061V16.6186V16.6311V16.6437V16.6562V16.6687V16.6812V16.6938V16.7063V16.7188V16.7313V16.7439V16.7564V16.7689V16.7814V16.794V16.8065V16.819V16.8315V16.8441V16.8566V16.8691V16.8816V16.8941V16.9066V16.9191V16.9317V16.9442V16.9567V16.9692V16.9817V16.9942V17.0067V17.0192V17.0317V17.0442V17.0567V17.0692V17.0817V17.0942V17.1067V17.1192V17.1317V17.1442V17.1567V17.1691V17.1816V17.1941V17.2066V17.2191V17.2315V17.244V17.2565V17.269V17.2814V17.2939V17.3064V17.3188V17.3313V17.3438V17.3562V17.3687V17.3811V17.3936V17.406V17.4185V17.4309V17.4434V17.4558V17.4683V17.4807V17.4931V17.5056V17.518V17.5304V17.5428V17.5553V17.5677V17.5801V17.5925V17.6049V17.6173V17.6297V17.6421V17.6545V17.6669ZM28.2766 18.8224L29.4332 18.2706C29.9628 18.0179 30.3 17.4834 30.3 16.8967V15.4445C30.3 14.6038 29.6185 13.9223 28.7778 13.9223H28.3667V13.9254V13.9374V13.9493V13.9613V13.9733V13.9852V13.9972V14.0092V14.0212V14.0332V14.0452V14.0572V14.0693V14.0813V14.0933V14.1053V14.1174V14.1294V14.1415V14.1535V14.1656V14.1777V14.1897V14.2018V14.2139V14.226V14.2381V14.2502V14.2623V14.2744V14.2865V14.2986V14.3107V14.3229V14.335V14.3471V14.3593V14.3714V14.3836V14.3957V14.4079V14.42V14.4322V14.4444V14.4565V14.4687V14.4809V14.4931V14.5053V14.5175V14.5297V14.5419V14.5541V14.5663V14.5786V14.5908V14.603V14.6152V14.6275V14.6397V14.652V14.6642V14.6765V14.6887V14.701V14.7132V14.7255V14.7378V14.7501V14.7623V14.7746V14.7869V14.7992V14.8115V14.8238V14.8361V14.8484V14.8607V14.873V14.8853V14.8977V14.91V14.9223V14.9346V14.947V14.9593V14.9716V14.984V14.9963V15.0087V15.021V15.0334V15.0458V15.0581V15.0705V15.0829V15.0952V15.1076V15.12V15.1324V15.1447V15.1571V15.1695V15.1819V15.1943V15.2067V15.2191V15.2315V15.2439V15.2563V15.2687V15.2811V15.2936V15.306V15.3184V15.3308V15.3432V15.3557V15.3681V15.3805V15.393V15.4054V15.4179V15.4303V15.4427V15.4552V15.4676V15.4801V15.4925V15.505V15.5175V15.5299V15.5424V15.5548V15.5673V15.5798V15.5922V15.6047V15.6172V15.6297V15.6421V15.6546V15.6671V15.6796V15.6921V15.7046V15.717V15.7295V15.742V15.7545V15.767V15.7795V15.792V15.8045V15.817V15.8295V15.842V15.8545V15.867V15.8795V15.892V15.9045V15.917V15.9296V15.9421V15.9546V15.9671V15.9796V15.9921V16.0046V16.0172V16.0297V16.0422V16.0547V16.0672V16.0798V16.0923V16.1048V16.1173V16.1299V16.1424V16.1549V16.1674V16.18V16.1925V16.205V16.2175V16.2301V16.2426V16.2551V16.2677V16.2802V16.2927V16.3053V16.3178V16.3303V16.3429V16.3554V16.3679V16.3805V16.393V16.4055V16.4181V16.4306V16.4431V16.4557V16.4682V16.4807V16.4933V16.5058V16.5183V16.5309V16.5434V16.5559V16.5685V16.581V16.5935V16.6061V16.6186V16.6311V16.6437V16.6562V16.6687V16.6812V16.6938V16.7063V16.7188V16.7313V16.7439V16.7564V16.7689V16.7814V16.794V16.8065V16.819V16.8315V16.8441V16.8566V16.8691V16.8816V16.8941V16.9066V16.9191V16.9317V16.9442V16.9567V16.9692V16.9817V16.9942V17.0067V17.0192V17.0317V17.0442V17.0567V17.0692V17.0817V17.0942V17.1067V17.1192V17.1317V17.1442V17.1567V17.1691V17.1816V17.1941V17.2066V17.2191V17.2315V17.244V17.2565V17.269V17.2814V17.2939V17.3064V17.3188V17.3313V17.3438V17.3562V17.3687V17.3811V17.3936V17.406V17.4185V17.4309V17.4434V17.4558V17.4683V17.4807V17.4931V17.5056V17.518V17.5304V17.5428V17.5553V17.5677V17.5801V17.5925V17.6049V17.6173V17.6297V17.6421V17.6545V17.6669C28.3667 18.06 28.3359 18.446 28.2766 18.8224ZM13.6333 17.6667C13.6333 18.0599 13.6641 18.4459 13.7235 18.8224L12.5668 18.2706C12.0372 18.0179 11.7 17.4834 11.7 16.8967V15.4445C11.7 14.6038 12.3815 13.9223 13.2222 13.9223H13.6333V17.6667ZM17.4941 28.6712C17.7576 28.4735 18.078 28.3667 18.4074 28.3667H21H23.5926C23.922 28.3667 24.2424 28.4735 24.5059 28.6712L25.6911 29.5601C26.0072 29.7971 25.8395 30.3001 25.4444 30.3001H16.5556C16.1605 30.3001 15.9928 29.7971 16.3089 29.5601L17.4941 28.6712Z" fill="#1C1C1C"/>
<path d="M20.8425 15.2012C20.9226 15.0989 21.0774 15.0989 21.1575 15.2012L21.7183 15.9178C21.7413 15.9472 21.7721 15.9696 21.8072 15.9824L22.662 16.2944C22.7841 16.3389 22.832 16.4862 22.7594 16.5939L22.2512 17.3487C22.2303 17.3797 22.2185 17.416 22.2172 17.4533L22.1847 18.3626C22.1801 18.4925 22.0548 18.5835 21.9299 18.5478L21.055 18.2977C21.019 18.2874 20.981 18.2874 20.945 18.2977L20.0701 18.5478C19.9452 18.5835 19.8199 18.4925 19.8153 18.3626L19.7828 17.4533C19.7815 17.416 19.7697 17.3797 19.7488 17.3487L19.2406 16.5939C19.168 16.4862 19.2159 16.3389 19.338 16.2944L20.1928 15.9824C20.2279 15.9696 20.2587 15.9472 20.2817 15.9178L20.8425 15.2012Z" fill="#1C1C1C"/>
</g>
<defs>
<filter id="filter0_d_710_1053" x="5" y="9" width="32" height="32" filterUnits="userSpaceOnUse" color-interpolation-filters="sRGB">
<feFlood flood-opacity="0" result="BackgroundImageFix"/>
<feColorMatrix in="SourceAlpha" type="matrix" values="0 0 0 0 0 0 0 0 0 0 0 0 0 0 0 0 0 0 127 0" result="hardAlpha"/>
<feOffset dy="4"/>
<feGaussianBlur stdDeviation="2"/>
<feComposite in2="hardAlpha" operator="out"/>
<feColorMatrix type="matrix" values="0 0 0 0 0 0 0 0 0 0 0 0 0 0 0 0 0 0 0.25 0"/>
<feBlend mode="normal" in2="BackgroundImageFix" result="effect1_dropShadow_710_1053"/>
<feBlend mode="normal" in="SourceGraphic" in2="effect1_dropShadow_710_1053" result="shape"/>
</filter>
</defs>
</svg>
