<svg width="42" height="42" viewBox="0 0 42 42" fill="none" xmlns="http://www.w3.org/2000/svg">
<circle cx="21" cy="21" r="21" fill="#65D358"/>
<path d="M17.8858 16.1699C18.0688 16.1748 18.2716 16.1846 18.4646 16.613C18.5926 16.8982 18.8082 17.4232 18.9838 17.8509C19.1204 18.1837 19.2329 18.4575 19.261 18.5136C19.3253 18.6416 19.3649 18.7893 19.2808 18.9616C19.2709 18.9819 19.2615 19.0013 19.2525 19.02C19.1851 19.16 19.137 19.2597 19.0236 19.3899C18.977 19.4435 18.9284 19.5022 18.88 19.5607C18.7948 19.6636 18.7102 19.7658 18.6377 19.838C18.5091 19.9659 18.3755 20.1039 18.5239 20.3599C18.6724 20.6159 19.1918 21.4579 19.9586 22.1373C20.7829 22.8712 21.4997 23.1805 21.862 23.3368C21.9324 23.3672 21.9894 23.3918 22.0312 23.4126C22.2885 23.5406 22.4418 23.5209 22.5902 23.3486C22.7387 23.1762 23.2333 22.6001 23.4065 22.3441C23.5747 22.0881 23.7478 22.1275 23.9853 22.2161C24.2227 22.3047 25.4891 22.9251 25.7463 23.0531C25.7971 23.0784 25.8447 23.1012 25.8887 23.1224C26.0677 23.2082 26.1894 23.2665 26.2409 23.3535C26.3052 23.4618 26.3052 23.9739 26.0926 24.5746C25.8749 25.1752 24.8262 25.7513 24.3513 25.7956C24.3063 25.7999 24.2616 25.8053 24.2155 25.8108C23.7803 25.8635 23.2278 25.9303 21.2595 25.1555C18.8341 24.2018 17.2331 21.8354 16.9094 21.357C16.8839 21.3192 16.8663 21.2932 16.8569 21.2806L16.8514 21.2733C16.7041 21.0762 15.8032 19.8707 15.8032 18.6269C15.8032 17.4368 16.3894 16.8173 16.6568 16.5347C16.6737 16.5168 16.6894 16.5002 16.7035 16.4849C16.9409 16.2289 17.218 16.1649 17.3911 16.1649C17.5643 16.1649 17.7374 16.1649 17.8858 16.1699Z" fill="black"/>
<path fill-rule="evenodd" clip-rule="evenodd" d="M11.1841 30.3314C11.1022 30.6284 11.3727 30.9025 11.6708 30.8247L16.2781 29.6213C17.7325 30.409 19.3699 30.8275 21.037 30.8275H21.0419C26.5279 30.8275 30.9999 26.3815 30.9999 20.9163C30.9999 18.2673 29.9659 15.7759 28.0862 13.9049C26.2064 12.034 23.7082 11 21.0419 11C15.556 11 11.084 15.4461 11.084 20.9114C11.0834 22.65 11.5423 24.3582 12.4147 25.8645L11.1841 30.3314ZM13.8608 26.2629C13.9676 25.8752 13.9143 25.4608 13.7127 25.1127C12.9725 23.8348 12.5835 22.3855 12.584 20.9114C12.584 16.2816 16.3773 12.5 21.0419 12.5C23.3118 12.5 25.4294 13.377 27.028 14.9681C28.6247 16.5574 29.4999 18.6661 29.4999 20.9163C29.4999 25.5459 25.7066 29.3275 21.0419 29.3275H21.037C19.6205 29.3275 18.2285 28.9718 16.9925 28.3023C16.658 28.1211 16.2671 28.0738 15.899 28.17L13.1366 28.8915L13.8608 26.2629Z" fill="black"/>
</svg>
