<svg width="42" height="42" viewBox="0 0 42 42" fill="none" xmlns="http://www.w3.org/2000/svg">
<circle cx="21" cy="21" r="21" fill="#FFE600"/>
<path fill-rule="evenodd" clip-rule="evenodd" d="M14.7535 12C14.1099 12 13.5089 12.3217 13.1519 12.8572L9.20393 18.7791C8.96223 19.1416 8.93333 19.6059 9.12819 19.9956C11.2886 24.3164 14.291 28.1618 17.9588 31.3056L19.8845 32.9562C20.3909 33.3903 21.1381 33.3903 21.6445 32.9562L23.5702 31.3056C27.238 28.1618 30.2404 24.3164 32.4008 19.9956C32.5957 19.6059 32.5668 19.1416 32.3251 18.7791L28.3771 12.8572C28.0201 12.3217 27.4191 12 26.7755 12H14.7535ZM14.5247 13.7724C14.5757 13.6959 14.6616 13.6499 14.7535 13.6499H17.3272L15.2206 18.7056C15.1721 18.822 15.1355 18.9421 15.1108 19.0641C14.3366 19.0065 13.5631 18.937 12.7905 18.8557L11.2443 18.6929L14.5247 13.7724ZM11.1715 20.3443C13.1441 23.9631 15.749 27.2028 18.8651 29.9085L15.4273 20.7409C14.4898 20.6765 13.5531 20.595 12.6178 20.4966L11.1715 20.3443ZM17.228 20.8437L20.7645 30.2745L24.301 20.8437C21.9446 20.9509 19.5844 20.9509 17.228 20.8437ZM26.1017 20.7409L22.6639 29.9085C25.78 27.2028 28.3849 23.9631 30.3575 20.3443L28.9112 20.4966C27.9759 20.595 27.0392 20.6765 26.1017 20.7409ZM30.2847 18.6929L28.7385 18.8557C27.9659 18.937 27.1924 19.0065 26.4182 19.0641C26.3935 18.9421 26.3569 18.822 26.3084 18.7056L24.2018 13.6499H26.7755C26.8674 13.6499 26.9533 13.6959 27.0043 13.7724L30.2847 18.6929ZM24.7152 19.1717C22.0832 19.3084 19.4458 19.3084 16.8138 19.1717L19.1146 13.6499H22.4144L24.7152 19.1717Z" fill="black"/>
</svg>
