<svg width="25" height="25" viewBox="0 0 25 25" fill="none" xmlns="http://www.w3.org/2000/svg">
<path d="M7.91663 11.9668C7.91663 12.381 8.25241 12.7168 8.66663 12.7168C9.08084 12.7168 9.41663 12.381 9.41663 11.9668H7.91663ZM15.9166 11.9668C15.9166 12.381 16.2524 12.7168 16.6666 12.7168C17.0808 12.7168 17.4166 12.381 17.4166 11.9668H15.9166ZM9.41663 7.9668C9.41663 6.17187 10.8717 4.7168 12.6666 4.7168V3.2168C10.0433 3.2168 7.91663 5.34344 7.91663 7.9668H9.41663ZM12.6666 4.7168C14.4616 4.7168 15.9166 6.17187 15.9166 7.9668H17.4166C17.4166 5.34344 15.29 3.2168 12.6666 3.2168V4.7168ZM7.91663 7.9668V11.9668H9.41663V7.9668H7.91663ZM15.9166 7.9668V11.9668H17.4166V7.9668H15.9166ZM8.66663 9.7168H16.6666V8.2168H8.66663V9.7168ZM12.6666 20.7168C11.0773 20.7168 9.8314 20.6555 8.84853 20.4819C7.86835 20.3087 7.20946 20.0335 6.74701 19.6495C5.84027 18.8966 5.41663 17.49 5.41663 14.4668H3.91663C3.91663 17.4695 4.29468 19.5629 5.78878 20.8035C6.52675 21.4163 7.46807 21.7612 8.58757 21.959C9.70438 22.1563 11.0576 22.2168 12.6666 22.2168V20.7168ZM19.9166 14.4668C19.9166 17.49 19.493 18.8966 18.5862 19.6495C18.1238 20.0335 17.4649 20.3087 16.4847 20.4819C15.5018 20.6555 14.2559 20.7168 12.6666 20.7168V22.2168C14.2756 22.2168 15.6289 22.1563 16.7457 21.959C17.8652 21.7612 18.8065 21.4163 19.5445 20.8035C21.0386 19.5629 21.4166 17.4695 21.4166 14.4668H19.9166ZM8.66663 8.2168C6.77637 8.2168 5.57137 9.46143 4.87963 10.7605C4.1916 12.0526 3.91663 13.5505 3.91663 14.4668H5.41663C5.41663 13.773 5.64166 12.5209 6.20362 11.4655C6.76188 10.4171 7.55688 9.7168 8.66663 9.7168V8.2168ZM16.6666 9.7168C17.7764 9.7168 18.5714 10.4171 19.1296 11.4655C19.6916 12.5209 19.9166 13.773 19.9166 14.4668H21.4166C21.4166 13.5505 21.1417 12.0526 20.4536 10.7605C19.7619 9.46143 18.5569 8.2168 16.6666 8.2168V9.7168Z" fill="#DCDDE9"/>
</svg>
