<svg width="24" height="25" viewBox="0 0 24 25" fill="none" xmlns="http://www.w3.org/2000/svg">
<path d="M6.49996 7.9667C7.96131 6.50535 9.5935 5.38569 10.6975 4.70758C11.5021 4.21336 12.4978 4.21336 13.3024 4.70758C14.4064 5.38569 16.0386 6.50536 17.5 7.9667C20.6683 11.1351 20.5 12.9667 20.5 15.9667C20.5 17.3765 20.3895 18.5655 20.2725 19.4299C20.1493 20.3393 19.3561 20.9667 18.4384 20.9667H17C15.8954 20.9667 15 20.0713 15 18.9667V16.9667C15 16.1711 14.6839 15.408 14.1213 14.8454C13.5587 14.2828 12.7956 13.9667 12 13.9667C11.2043 13.9667 10.4413 14.2828 9.87864 14.8454C9.31603 15.408 8.99996 16.1711 8.99996 16.9667V18.9667C8.99996 20.0713 8.10453 20.9667 6.99996 20.9667H5.56152C4.64378 20.9667 3.85061 20.3393 3.72745 19.4298C3.61039 18.5655 3.49997 17.3765 3.49997 15.9667C3.49997 12.9667 3.33157 11.1351 6.49996 7.9667Z" stroke="#DCDDD9" stroke-width="1.5" stroke-linecap="round" stroke-linejoin="round"/>
</svg>
