<svg width="24" height="25" viewBox="0 0 24 25" fill="none" xmlns="http://www.w3.org/2000/svg">
<path d="M16.2426 5.89571L16.7729 6.42604L16.7729 6.42604L16.2426 5.89571ZM15.8403 6.29802L16.3706 6.82836L15.8403 6.29802ZM19.071 7.30992L19.6014 6.77959V6.77959L19.071 7.30992ZM17.6568 5.89571L17.1265 6.42604L17.1265 6.42604L17.6568 5.89571ZM18.6688 9.1264L19.1991 9.65673L19.1991 9.65672L18.6688 9.1264ZM19.071 8.72413L18.5407 8.1938V8.1938L19.071 8.72413ZM20 10.9668V10.2168V10.9668ZM19.4313 10.9668V11.7168V10.9668ZM19.071 17.2094L19.6014 16.6791L19.6014 16.6791L19.071 17.2094ZM18.6688 16.8071L18.1384 17.3375V17.3375L18.6688 16.8071ZM17.6568 20.0378L17.1265 19.5075V19.5075L17.6568 20.0378ZM19.071 18.6236L19.6014 19.154V19.154L19.071 18.6236ZM15.8403 19.6356L16.3707 19.1052H16.3707L15.8403 19.6356ZM16.2426 20.0378L15.7123 20.5682L15.7123 20.5682L16.2426 20.0378ZM7.75732 20.0378L8.28765 20.5682H8.28765L7.75732 20.0378ZM8.1596 19.6356L8.68993 20.1659L8.68993 20.1659L8.1596 19.6356ZM4.92889 18.6236L5.45922 18.0933V18.0933L4.92889 18.6236ZM6.34311 20.0378L5.81278 20.5682H5.81278L6.34311 20.0378ZM5.33123 16.8071L5.86156 17.3374L5.86156 17.3374L5.33123 16.8071ZM4.92889 17.2094L5.45922 17.7397L4.92889 17.2094ZM4.56877 10.9668V10.2168H4.56877L4.56877 10.9668ZM4 10.9668V11.7168H4L4 10.9668ZM4.92891 8.72414L4.39858 9.25447H4.39858L4.92891 8.72414ZM5.33123 9.12646L5.86156 8.59613H5.86156L5.33123 9.12646ZM6.34312 5.89571L6.87345 6.42604V6.42604L6.34312 5.89571ZM4.92891 7.30992L5.45924 7.84025H5.45924L4.92891 7.30992ZM8.15966 6.29803L7.62933 6.82836V6.82836L8.15966 6.29803ZM7.75734 5.89571L8.28767 5.36538V5.36538L7.75734 5.89571ZM9.31776 6.49909L9.60535 7.19176H9.60535L9.31776 6.49909ZM5.53229 10.2846L6.22497 10.5721L5.53229 10.2846ZM5.53228 15.649L6.22496 15.3614L5.53228 15.649ZM9.31774 19.4345L9.60533 18.7418H9.60533L9.31774 19.4345ZM14.6822 19.4345L14.3947 18.7418L14.6822 19.4345ZM18.4677 15.649L19.1604 15.9366L18.4677 15.649ZM18.4677 10.2845L17.775 10.5721V10.5721L18.4677 10.2845ZM14.6822 6.49908L14.3946 7.19176L14.6822 6.49908ZM13 3.2168H11V4.7168H13V3.2168ZM14.75 5.53558V4.9668H13.25V5.53558H14.75ZM15.7123 5.36537L15.31 5.76769L16.3706 6.82836L16.7729 6.42604L15.7123 5.36537ZM19.6014 6.77959L18.1871 5.36538L17.1265 6.42604L18.5407 7.84025L19.6014 6.77959ZM19.1991 9.65672L19.6014 9.25446L18.5407 8.1938L18.1384 8.59607L19.1991 9.65672ZM20 10.2168L19.4313 10.2168V11.7168L20 11.7168V10.2168ZM21.75 13.9668V11.9668H20.25V13.9668H21.75ZM19.4312 15.7168H20V14.2168H19.4312V15.7168ZM19.6014 16.6791L19.1991 16.2768L18.1384 17.3375L18.5407 17.7397L19.6014 16.6791ZM18.1872 20.5682L19.6014 19.154L18.5407 18.0933L17.1265 19.5075L18.1872 20.5682ZM15.31 20.1659L15.7123 20.5682L16.7729 19.5075L16.3707 19.1052L15.31 20.1659ZM14.75 20.9668V20.398H13.25V20.9668H14.75ZM11 22.7168H13V21.2168H11V22.7168ZM9.25 20.3981V20.9668H10.75V20.3981H9.25ZM8.28765 20.5682L8.68993 20.1659L7.62927 19.1052L7.22699 19.5075L8.28765 20.5682ZM4.39856 19.154L5.81278 20.5682L6.87344 19.5075L5.45922 18.0933L4.39856 19.154ZM4.8009 16.2767L4.39856 16.6791L5.45922 17.7397L5.86156 17.3374L4.8009 16.2767ZM4 15.7168H4.56879V14.2168H4V15.7168ZM2.25 11.9668V13.9668H3.75V11.9668H2.25ZM4.56877 10.2168L4 10.2168L4 11.7168L4.56877 11.7168L4.56877 10.2168ZM4.39858 9.25447L4.8009 9.65679L5.86156 8.59613L5.45924 8.19381L4.39858 9.25447ZM5.81279 5.36538L4.39858 6.77959L5.45924 7.84025L6.87345 6.42604L5.81279 5.36538ZM8.68999 5.7677L8.28767 5.36538L7.22701 6.42604L7.62933 6.82836L8.68999 5.7677ZM9.25 4.9668V5.53556H10.75V4.9668H9.25ZM9.60535 7.19176C10.2355 6.93015 10.75 6.31238 10.75 5.53556H9.25C9.25 5.61437 9.19029 5.73994 9.03018 5.80642L9.60535 7.19176ZM7.62933 6.82836C8.17517 7.3742 8.96899 7.45596 9.60535 7.19176L9.03018 5.80642C8.87601 5.87043 8.74939 5.82711 8.68999 5.7677L7.62933 6.82836ZM6.87345 6.42604C6.97108 6.32841 7.12937 6.32841 7.22701 6.42604L8.28767 5.36538C7.60425 4.68196 6.49621 4.68196 5.81279 5.36538L6.87345 6.42604ZM5.45924 8.19381C5.36161 8.09617 5.36161 7.93788 5.45924 7.84025L4.39858 6.77959C3.71516 7.46301 3.71516 8.57105 4.39858 9.25447L5.45924 8.19381ZM6.22497 10.5721C6.48917 9.93579 6.4074 9.14197 5.86156 8.59613L4.8009 9.65679C4.86031 9.71619 4.90363 9.84281 4.83962 9.99698L6.22497 10.5721ZM4.56877 11.7168C5.34558 11.7168 5.96335 11.2023 6.22497 10.5721L4.83962 9.99698C4.77315 10.1571 4.64757 10.2168 4.56877 10.2168V11.7168ZM3.75 11.9668C3.75 11.8287 3.86193 11.7168 4 11.7168V10.2168C3.0335 10.2168 2.25 11.0003 2.25 11.9668H3.75ZM4 14.2168C3.86193 14.2168 3.75 14.1049 3.75 13.9668H2.25C2.25 14.9333 3.0335 15.7168 4 15.7168V14.2168ZM6.22496 15.3614C5.96335 14.7313 5.34559 14.2168 4.56879 14.2168V15.7168C4.64758 15.7168 4.77314 15.7765 4.83961 15.9366L6.22496 15.3614ZM5.86156 17.3374C6.40739 16.7916 6.48915 15.9978 6.22496 15.3614L4.83961 15.9366C4.90361 16.0908 4.8603 16.2174 4.8009 16.2767L5.86156 17.3374ZM5.45922 18.0933C5.36159 17.9957 5.36159 17.8374 5.45922 17.7397L4.39856 16.6791C3.71514 17.3625 3.71514 18.4705 4.39856 19.154L5.45922 18.0933ZM7.22699 19.5075C7.12936 19.6051 6.97107 19.6051 6.87344 19.5075L5.81278 20.5682C6.49619 21.2516 7.60423 21.2516 8.28765 20.5682L7.22699 19.5075ZM9.60533 18.7418C8.96896 18.4776 8.17512 18.5594 7.62927 19.1052L8.68993 20.1659C8.74934 20.1065 8.87597 20.0632 9.03016 20.1272L9.60533 18.7418ZM10.75 20.3981C10.75 19.6212 10.2355 19.0034 9.60533 18.7418L9.03016 20.1272C9.19028 20.1936 9.25 20.3192 9.25 20.3981H10.75ZM11 21.2168C10.8619 21.2168 10.75 21.1049 10.75 20.9668H9.25C9.25 21.9333 10.0335 22.7168 11 22.7168V21.2168ZM13.25 20.9668C13.25 21.1049 13.1381 21.2168 13 21.2168V22.7168C13.9665 22.7168 14.75 21.9333 14.75 20.9668H13.25ZM14.3947 18.7418C13.7645 19.0034 13.25 19.6212 13.25 20.398H14.75C14.75 20.3192 14.8097 20.1937 14.9698 20.1272L14.3947 18.7418ZM16.3707 19.1052C15.8248 18.5594 15.031 18.4776 14.3947 18.7418L14.9698 20.1272C15.124 20.0632 15.2506 20.1065 15.31 20.1659L16.3707 19.1052ZM17.1265 19.5075C17.0289 19.6051 16.8706 19.6051 16.7729 19.5075L15.7123 20.5682C16.3957 21.2516 17.5037 21.2516 18.1872 20.5682L17.1265 19.5075ZM18.5407 17.7397C18.6383 17.8374 18.6383 17.9957 18.5407 18.0933L19.6014 19.154C20.2848 18.4705 20.2848 17.3625 19.6014 16.6791L18.5407 17.7397ZM17.775 15.3615C17.5108 15.9978 17.5926 16.7916 18.1384 17.3375L19.1991 16.2768C19.1397 16.2174 19.0964 16.0908 19.1604 15.9366L17.775 15.3615ZM19.4312 14.2168C18.6544 14.2168 18.0366 14.7313 17.775 15.3615L19.1604 15.9366C19.2269 15.7765 19.3524 15.7168 19.4312 15.7168V14.2168ZM20.25 13.9668C20.25 14.1049 20.1381 14.2168 20 14.2168V15.7168C20.9665 15.7168 21.75 14.9333 21.75 13.9668H20.25ZM20 11.7168C20.1381 11.7168 20.25 11.8287 20.25 11.9668H21.75C21.75 11.0003 20.9665 10.2168 20 10.2168V11.7168ZM17.775 10.5721C18.0366 11.2023 18.6544 11.7168 19.4313 11.7168V10.2168C19.3524 10.2168 19.2269 10.1571 19.1604 9.99695L17.775 10.5721ZM18.1384 8.59606C17.5926 9.14192 17.5108 9.93576 17.775 10.5721L19.1604 9.99695C19.0964 9.84277 19.1397 9.71614 19.1991 9.65673L18.1384 8.59606ZM18.5407 7.84025C18.6383 7.93788 18.6383 8.09617 18.5407 8.1938L19.6014 9.25446C20.2848 8.57105 20.2848 7.46301 19.6014 6.77959L18.5407 7.84025ZM16.7729 6.42604C16.8706 6.3284 17.0289 6.3284 17.1265 6.42604L18.1871 5.36538C17.5037 4.68196 16.3957 4.68196 15.7123 5.36538L16.7729 6.42604ZM14.3946 7.19176C15.031 7.45595 15.8248 7.37418 16.3706 6.82836L15.31 5.76769C15.2506 5.82709 15.124 5.87041 14.9698 5.80641L14.3946 7.19176ZM13.25 5.53558C13.25 6.31239 13.7645 6.93015 14.3946 7.19176L14.9698 5.80641C14.8097 5.73994 14.75 5.61438 14.75 5.53558H13.25ZM11 3.2168C10.0335 3.2168 9.25 4.0003 9.25 4.9668H10.75C10.75 4.82873 10.8619 4.7168 11 4.7168V3.2168ZM13 4.7168C13.1381 4.7168 13.25 4.82873 13.25 4.9668H14.75C14.75 4.0003 13.9665 3.2168 13 3.2168V4.7168ZM13.25 12.9668C13.25 13.6572 12.6904 14.2168 12 14.2168V15.7168C13.5188 15.7168 14.75 14.4856 14.75 12.9668H13.25ZM12 14.2168C11.3096 14.2168 10.75 13.6572 10.75 12.9668H9.25C9.25 14.4856 10.4812 15.7168 12 15.7168V14.2168ZM10.75 12.9668C10.75 12.2764 11.3096 11.7168 12 11.7168V10.2168C10.4812 10.2168 9.25 11.448 9.25 12.9668H10.75ZM12 11.7168C12.6904 11.7168 13.25 12.2764 13.25 12.9668H14.75C14.75 11.448 13.5188 10.2168 12 10.2168V11.7168Z" fill="#DCDDE9"/>
</svg>
