<svg width="25" height="25" viewBox="0 0 25 25" fill="none" xmlns="http://www.w3.org/2000/svg">
<path d="M21.0834 8.9668C21.0834 8.55258 20.7476 8.2168 20.3334 8.2168C19.9192 8.2168 19.5834 8.55258 19.5834 8.9668H21.0834ZM19.5834 14.9668C19.5834 15.381 19.9192 15.7168 20.3334 15.7168C20.7476 15.7168 21.0834 15.381 21.0834 14.9668H19.5834ZM17.3334 11.2168C16.9192 11.2168 16.5834 11.5526 16.5834 11.9668C16.5834 12.381 16.9192 12.7168 17.3334 12.7168V11.2168ZM23.3334 12.7168C23.7476 12.7168 24.0834 12.381 24.0834 11.9668C24.0834 11.5526 23.7476 11.2168 23.3334 11.2168V12.7168ZM19.5834 8.9668V14.9668H21.0834V8.9668H19.5834ZM17.3334 12.7168H23.3334V11.2168H17.3334V12.7168ZM6.83337 22.7169H17.8334V21.2169H6.83337V22.7169ZM12.3334 14.7169C11.3536 14.7169 9.24765 14.6919 7.38119 15.2144C6.44404 15.4767 5.50141 15.8939 4.78449 16.5776C4.04527 17.2826 3.58337 18.2376 3.58337 19.4669H5.08337C5.08337 18.6558 5.37147 18.0906 5.81975 17.6631C6.29033 17.2143 6.9727 16.8864 7.78556 16.6589C9.4191 16.2016 11.3131 16.2169 12.3334 16.2169V14.7169ZM12.3334 16.2169C13.3536 16.2169 15.2476 16.2016 16.8812 16.6589C17.694 16.8864 18.3764 17.2143 18.847 17.6631C19.2953 18.0906 19.5834 18.6558 19.5834 19.4669H21.0834C21.0834 18.2376 20.6215 17.2826 19.8823 16.5776C19.1653 15.8939 18.2227 15.4767 17.2856 15.2144C15.4191 14.6919 13.3131 14.7169 12.3334 14.7169V16.2169ZM3.58337 19.4669C3.58337 21.2618 5.03845 22.7169 6.83337 22.7169V21.2169C5.86688 21.2169 5.08337 20.4334 5.08337 19.4669H3.58337ZM19.5834 19.4669C19.5834 20.4334 18.7999 21.2169 17.8334 21.2169V22.7169C19.6283 22.7169 21.0834 21.2618 21.0834 19.4669H19.5834ZM15.5834 7.9668C15.5834 9.76172 14.1283 11.2168 12.3334 11.2168V12.7168C14.9567 12.7168 17.0834 10.5901 17.0834 7.9668H15.5834ZM12.3334 11.2168C10.5384 11.2168 9.08337 9.76172 9.08337 7.9668H7.58337C7.58337 10.5901 9.71002 12.7168 12.3334 12.7168V11.2168ZM9.08337 7.9668C9.08337 6.17187 10.5384 4.7168 12.3334 4.7168V3.2168C9.71002 3.2168 7.58337 5.34344 7.58337 7.9668H9.08337ZM12.3334 4.7168C14.1283 4.7168 15.5834 6.17187 15.5834 7.9668H17.0834C17.0834 5.34344 14.9567 3.2168 12.3334 3.2168V4.7168Z" fill="#DCDDE9"/>
</svg>
