<svg width="26" height="29" viewBox="0 0 26 29" fill="none" xmlns="http://www.w3.org/2000/svg">
<g filter="url(#filter0_d_1095_1260)">
<path d="M10 3.25C6.82436 3.25 4.25 5.82436 4.25 9V16.1069C4.25 16.5211 4.58579 16.8569 5 16.8569C5.41421 16.8569 5.75 16.5211 5.75 16.1069V9C5.75 6.65279 7.65279 4.75 10 4.75H17.0129C17.4271 4.75 17.7629 4.41421 17.7629 4C17.7629 3.58579 17.4271 3.25 17.0129 3.25H10Z" fill="#E33342"/>
<path fill-rule="evenodd" clip-rule="evenodd" d="M19.4026 6.79326C16.1616 6.43104 12.8384 6.43104 9.59748 6.79326C8.6742 6.89645 7.93227 7.62304 7.82344 8.55348C7.43906 11.84 7.43906 15.16 7.82344 18.4465C7.93227 19.377 8.6742 20.1035 9.59748 20.2067C12.8384 20.569 16.1616 20.569 19.4026 20.2067C20.3258 20.1035 21.0678 19.377 21.1766 18.4465C21.561 15.16 21.561 11.84 21.1766 8.55348C21.0678 7.62304 20.3258 6.89645 19.4026 6.79326ZM9.76409 8.28398C12.8943 7.93413 16.1057 7.93413 19.2359 8.28398C19.4733 8.3105 19.6599 8.49821 19.6867 8.72773C20.0576 11.8984 20.0576 15.1016 19.6867 18.2723C19.6599 18.5018 19.4733 18.6895 19.2359 18.716C16.1057 19.0659 12.8943 19.0659 9.76409 18.716C9.52674 18.6895 9.34013 18.5018 9.31329 18.2723C8.94245 15.1016 8.94245 11.8984 9.31329 8.72773C9.34013 8.49821 9.52674 8.3105 9.76409 8.28398Z" fill="#E33342"/>
</g>
<defs>
<filter id="filter0_d_1095_1260" x="-3" y="0" width="32" height="32" filterUnits="userSpaceOnUse" color-interpolation-filters="sRGB">
<feFlood flood-opacity="0" result="BackgroundImageFix"/>
<feColorMatrix in="SourceAlpha" type="matrix" values="0 0 0 0 0 0 0 0 0 0 0 0 0 0 0 0 0 0 127 0" result="hardAlpha"/>
<feOffset dy="4"/>
<feGaussianBlur stdDeviation="2"/>
<feComposite in2="hardAlpha" operator="out"/>
<feColorMatrix type="matrix" values="0 0 0 0 0 0 0 0 0 0 0 0 0 0 0 0 0 0 0.25 0"/>
<feBlend mode="normal" in2="BackgroundImageFix" result="effect1_dropShadow_1095_1260"/>
<feBlend mode="normal" in="SourceGraphic" in2="effect1_dropShadow_1095_1260" result="shape"/>
</filter>
</defs>
</svg>
